<svg xmlns="http://www.w3.org/2000/svg" width="34" height="34" viewBox="0 0 34 34">
  <g id="linkedin" transform="translate(0.056)">
    <rect id="Rectangle_362" data-name="Rectangle 362" width="34" height="34" transform="translate(-0.056)" fill="#335ba5"/>
    <g id="icon-social-linkedin" transform="translate(8.514 8.572)">
      <path id="LinkedIn-2" data-name="LinkedIn" d="M29.248,21.688v6.19H25.674V22.07c0-1.468-.51-2.425-1.851-2.425a1.973,1.973,0,0,0-1.851,1.34,3.766,3.766,0,0,0-.128.893v6H18.271s.064-9.828,0-10.849h3.574v1.6h0v-.064A3.575,3.575,0,0,1,25.1,16.774C27.461,16.774,29.248,18.305,29.248,21.688ZM14.442,11.8A1.9,1.9,0,0,0,12.4,13.647,1.847,1.847,0,0,0,14.378,15.5h0a1.866,1.866,0,0,0,2.042-1.851A1.778,1.778,0,0,0,14.442,11.8ZM12.655,27.878h3.574V17.031H12.655Z" transform="translate(-12.4 -11.791)" fill="#fff"/>
    </g>
  </g>
</svg>
