<svg xmlns="http://www.w3.org/2000/svg" width="20.882" height="20.882" viewBox="0 0 20.882 20.882">
  <g id="share_blue" transform="translate(0 0)">
    <path id="Path_4027" data-name="Path 4027" d="M81.153,64a3.74,3.74,0,0,0-3.729,3.729,2.781,2.781,0,0,0,.149.97l-6.9,3.468a3.726,3.726,0,1,0-2.946,6,3.676,3.676,0,0,0,2.909-1.417l6.9,3.468a3.549,3.549,0,0,0-.112.932,3.729,3.729,0,1,0,3.729-3.729,3.807,3.807,0,0,0-2.946,1.417l-6.9-3.468a4.054,4.054,0,0,0,.149-.97,2.781,2.781,0,0,0-.149-.97l6.9-3.468a3.656,3.656,0,0,0,2.946,1.492,3.729,3.729,0,0,0,0-7.458Z" transform="translate(-64 -64)" fill="#2ea5ff"/>
  </g>
</svg>
