<svg xmlns="http://www.w3.org/2000/svg" width="34" height="34" viewBox="0 0 34 34">
  <g id="insta" transform="translate(0.057)">
    <rect id="Rectangle_378" data-name="Rectangle 378" width="34" height="34" transform="translate(-0.057)" fill="#335ba5"/>
    <path id="iconmonstr-instagram-11" d="M9.931,1.79c2.651,0,2.966.01,4.014.058,2.691.123,3.949,1.4,4.071,4.071.048,1.047.058,1.362.058,4.013s-.01,2.966-.058,4.013c-.123,2.669-1.377,3.949-4.071,4.071-1.048.048-1.361.058-4.014.058s-2.966-.01-4.013-.058c-2.7-.125-3.948-1.407-4.071-4.072C1.8,12.9,1.79,12.583,1.79,9.931s.011-2.965.058-4.013C1.97,3.247,3.222,1.97,5.918,1.847,6.966,1.8,7.28,1.79,9.931,1.79Zm0-1.79C7.234,0,6.9.012,5.837.058,2.23.225.226,2.226.06,5.836.012,6.9,0,7.234,0,9.931s.012,3.036.058,4.095c.166,3.607,2.166,5.611,5.777,5.777,1.06.048,1.4.058,4.095.058s3.036-.012,4.095-.058c3.6-.166,5.613-2.166,5.776-5.777.049-1.059.06-1.4.06-4.095S19.849,6.9,19.8,5.837C19.64,2.234,17.637.226,14.027.06,12.967.012,12.628,0,9.931,0Zm0,4.832a5.1,5.1,0,1,0,5.1,5.1A5.1,5.1,0,0,0,9.931,4.832Zm0,8.41a3.31,3.31,0,1,1,3.31-3.31,3.31,3.31,0,0,1-3.31,3.31Zm5.3-9.8a1.192,1.192,0,1,0,1.191,1.192A1.192,1.192,0,0,0,15.233,3.44Z" transform="translate(6.654 6.545)" fill="#fff"/>
  </g>
</svg>
