<svg xmlns="http://www.w3.org/2000/svg" width="34.844" height="28.481" viewBox="0 0 34.844 28.481">
  <g id="sound" transform="translate(0 -0.001)">
    <g id="Group_135" data-name="Group 135" transform="translate(0 0)">
      <path id="Path_59" data-name="Path 59" d="M67.1,32.53a1.748,1.748,0,1,0-2.162,2.748,4.411,4.411,0,0,1-.183,6.962,1.537,1.537,0,0,0-.256,2.2l.147.147a1.77,1.77,0,0,0,2.382.293A7.906,7.906,0,0,0,67.1,32.53Z" transform="translate(-41.56 -24.447)" fill="#2ea5ff"/>
      <path id="Path_60" data-name="Path 60" d="M78.242,19.17a1.773,1.773,0,0,0-2.418.256h0a1.73,1.73,0,0,0,.22,2.418,10.811,10.811,0,0,1,0,16.781,1.73,1.73,0,0,0-.22,2.418h0a1.739,1.739,0,0,0,2.418.293,14.218,14.218,0,0,0,0-22.167Z" transform="translate(-48.711 -15.997)" fill="#2ea5ff"/>
      <path id="Path_61" data-name="Path 61" d="M17.815,11.639l-8.9,6.852H4.552A2.048,2.048,0,0,0,2.5,20.542v9.673a2.048,2.048,0,0,0,2.052,2.052h4.36l8.94,6.852a2.359,2.359,0,0,0,3.811-1.905V13.507A2.391,2.391,0,0,0,17.815,11.639Z" transform="translate(-2.5 -11.141)" fill="#2ea5ff"/>
    </g>
  </g>
</svg>
