<svg xmlns="http://www.w3.org/2000/svg" width="34" height="34" viewBox="0 0 34 34">
  <g id="twitter" transform="translate(0.053)">
    <rect id="Rectangle_363" data-name="Rectangle 363" width="34" height="34" transform="translate(-0.053 0)" fill="#335ba5"/>
    <g id="g10" transform="translate(8.175 8.364)">
      <g id="g12" transform="translate(0 0)">
        <g id="g14">
          <rect id="Rectangle_360" data-name="Rectangle 360" width="2.528" height="2.052" transform="translate(8.209 6.678)" fill="#fff"/>
          <g id="g16">
            <path id="path22" d="M31.086-135.054a7.625,7.625,0,0,1-2.235.614,3.926,3.926,0,0,0,1.713-2.153,7.7,7.7,0,0,1-2.474.943,3.864,3.864,0,0,0-2.84-1.228,3.89,3.89,0,0,0-2.754,1.139,3.89,3.89,0,0,0-1.139,2.754,4.065,4.065,0,0,0,.1.889,11.04,11.04,0,0,1-8.016-4.068,3.839,3.839,0,0,0-.522,1.951,3.912,3.912,0,0,0,1.732,3.243,3.8,3.8,0,0,1-1.759-.486v.046a3.883,3.883,0,0,0,3.124,3.811,3.8,3.8,0,0,1-1.026.137,3.9,3.9,0,0,1-.733-.073,3.888,3.888,0,0,0,3.637,2.7,7.81,7.81,0,0,1-4.837,1.668,7.724,7.724,0,0,1-.925-.058,11.049,11.049,0,0,0,5.965,1.75,10.99,10.99,0,0,0,11.066-11.066c0-.165,0-.339-.009-.5a8.088,8.088,0,0,0,1.933-2.013" transform="translate(-12.131 136.877)" fill="#fff"/>
          </g>
        </g>
      </g>
    </g>
  </g>
</svg>
