<svg xmlns="http://www.w3.org/2000/svg" xmlns:xlink="http://www.w3.org/1999/xlink" width="18" height="20" viewBox="0 0 18 20">
  <defs>
    <clipPath id="clip-add_calender">
      <rect width="18" height="20"/>
    </clipPath>
  </defs>
  <g id="add_calender" data-name="add calender" clip-path="url(#clip-add_calender)">
    <rect width="18" height="20" fill="rgba(255,255,255,0)"/>
    <g id="Group_6230" data-name="Group 6230" transform="translate(-555.923 -3408.5)">
      <g id="noun_calender_1439804_1_" data-name="noun_calender_1439804 (1)" transform="translate(978.133 3163.49)">
        <g id="Group_6200" data-name="Group 6200" transform="translate(-421.2 246.4)">
          <g id="Group_6198" data-name="Group 6198" transform="translate(0 0)">
            <g id="Group_6197" data-name="Group 6197">
              <path id="Path_4271" data-name="Path 4271" d="M-405.571,249.233a1.166,1.166,0,0,0-.87-.373h-1.217v-.919a1.542,1.542,0,0,0-.447-1.093,1.5,1.5,0,0,0-1.093-.447h-.621a1.542,1.542,0,0,0-1.093.447,1.5,1.5,0,0,0-.447,1.093v.919h-3.677v-.919a1.542,1.542,0,0,0-.447-1.093,1.5,1.5,0,0,0-1.093-.447h-.621a1.541,1.541,0,0,0-1.093.447,1.5,1.5,0,0,0-.447,1.093v.919h-1.218a1.206,1.206,0,0,0-.87.373,1.165,1.165,0,0,0-.373.87v12.275a1.205,1.205,0,0,0,.373.87,1.166,1.166,0,0,0,.87.373h13.492a1.205,1.205,0,0,0,.87-.373,1.165,1.165,0,0,0,.373-.87V250.1A1.061,1.061,0,0,0-405.571,249.233Zm-4.547-.969h1.218v1.913h-1.218Zm-7.355,0h1.218v1.913h-1.218Zm11.032,14.089h-13.492v-9.815h13.492Z" transform="translate(421.2 -246.4)" fill="#333"/>
            </g>
          </g>
          <g id="Group_6199" data-name="Group 6199" transform="translate(5.044 7.877)">
            <path id="Path_4272" data-name="Path 4272" d="M-397.347,280.461h2.062a.282.282,0,0,1,.2.075.282.282,0,0,1,.075.2v.6a.4.4,0,0,1-.075.224.206.206,0,0,1-.2.075h-2.062v2.062a.282.282,0,0,1-.075.2.3.3,0,0,1-.224.075h-.6a.4.4,0,0,1-.224-.075.206.206,0,0,1-.075-.2v-2.062H-400.6a.4.4,0,0,1-.224-.075c-.075-.05-.075-.124-.075-.224v-.6a.282.282,0,0,1,.075-.2.3.3,0,0,1,.224-.075h2.062V278.4a.4.4,0,0,1,.075-.224c.05-.075.124-.075.224-.075h.6a.4.4,0,0,1,.224.075c.075.05.075.124.075.224Z" transform="translate(400.9 -278.1)" fill="#333"/>
          </g>
        </g>
      </g>
    </g>
  </g>
</svg>
