<svg xmlns="http://www.w3.org/2000/svg" xmlns:xlink="http://www.w3.org/1999/xlink" width="18" height="17" viewBox="0 0 18 17">
  <defs>
    <clipPath id="clip-fullscreen">
      <rect width="18" height="17"/>
    </clipPath>
  </defs>
  <g id="fullscreen" clip-path="url(#clip-fullscreen)">
    <rect width="18" height="17" fill="rgba(255,255,255,0)"/>
    <g id="noun_enlarge_696533" transform="translate(-17.19 -17.364)">
      <g id="Group_136" data-name="Group 136" transform="translate(18.656 18.329)">
        <path id="Path_62" data-name="Path 62" d="M18.656,56.925h5.65l-2.494-2.494,2.963-2.963-.662-.663-2.963,2.963-2.493-2.494Z" transform="translate(-18.656 -41.856)" fill="#fff"/>
        <path id="Path_63" data-name="Path 63" d="M57.246,18.329H51.595l2.494,2.494-2.964,2.962.663.663,2.964-2.963,2.494,2.495Z" transform="translate(-42.177 -18.329)" fill="#fff"/>
        <path id="Path_64" data-name="Path 64" d="M57.246,51.274l-2.494,2.494-2.964-2.963-.663.663,2.964,2.963-2.494,2.494h5.651Z" transform="translate(-42.177 -41.856)" fill="#fff"/>
        <path id="Path_65" data-name="Path 65" d="M18.656,23.98l2.493-2.494,2.963,2.962.662-.663-2.963-2.962,2.494-2.494h-5.65Z" transform="translate(-18.656 -18.329)" fill="#fff"/>
      </g>
    </g>
  </g>
</svg>
